<svg width="120" height="120" viewBox="0 0 120 120" fill="none" xmlns="http://www.w3.org/2000/svg">
  <rect width="120" height="120" rx="32" fill="url(#paint0_linear)" />
  <path
    d="M40 87V33h16.7c7.8 0 13.8 1.6 18.2 4.7 4.4 3.1 6.5 7.6 6.5 13.4 0 4.3-1 7.9-3.1 10.7-2.1 2.8-5 4.8-8.8 5.9l13.5 19.3H69.3L57.8 69.9H56V87H40Zm16-30.7h4.2c3.5 0 6.2-.7 8.1-2 1.9-1.4 2.8-3.3 2.8-5.8 0-2.5-.9-4.4-2.8-5.7-1.9-1.3-4.6-2-8.1-2H56v15.5Z"
    fill="white"
  />
  <defs>
    <linearGradient id="paint0_linear" x1="20" y1="20" x2="104" y2="104" gradientUnits="userSpaceOnUse">
      <stop stop-color="#FF6B2C" />
      <stop offset="1" stop-color="#FF9D6D" />
    </linearGradient>
  </defs>
</svg>
